#Comment line ignore any data following # character 
#Hierarchical Translation and Rotation (.htr) file 
[Header]	
#Header keywords are followed by a single value 
FileType HTR		#Single word string
DataType HTRS		#Translation followed by rotation and scale data
FileVersion 1		#integer
NumSegments 84		#integer
NumFrames 2		#integer
DataFrameRate 30		#integer, data frame rate in this file
EulerRotationOrder ZYX
CalibrationUnits mm
RotationUnits Degrees
GlobalAxisofGravity Y
BoneLengthAxis Y
ScaleFactor 1.00
[SegmentNames&Hierarchy]
#CHILD	PARENT
MASTER GLOBAL
root MASTER
chest root
L_mid_tent01 root
R_mid_tent01 root
spine01 root
Bip01_Neck chest
L_humerus chest
R_humerus chest
weapon_bone chest
Bip01_Head Bip01_Neck
eye_left_bone Bip01_Head
eye_right_bone Bip01_Head
L_forearm L_humerus
L_front_hand L_forearm
L_weapon_bone L_forearm
L_front_hand01_01 L_front_hand
L_front_hand02_01 L_front_hand
L_front_hand03_01 L_front_hand
L_front_hand01_02 L_front_hand01_01
L_front_hand02_02 L_front_hand02_01
L_front_hand03_02 L_front_hand03_01
R_forearm R_humerus
R_front_hand R_forearm
R_weapon_bone R_forearm
R_front_hand01_01 R_front_hand
R_front_hand02_01 R_front_hand
R_front_hand03_01 R_front_hand
R_front_hand01_02 R_front_hand01_01
R_front_hand02_02 R_front_hand02_01
R_front_hand03_02 R_front_hand03_01
null_rope01_connect L_mid_tent01
Rope1_Seg01 null_rope01_connect
Rope1_Seg02 Rope1_Seg01
Rope1_Seg03 Rope1_Seg02
Rope1_Seg04 Rope1_Seg03
Rope1_Seg05 Rope1_Seg04
Rope1_Seg06 Rope1_Seg05
Rope1_Seg07 Rope1_Seg06
Rope1_Seg09 Rope1_Seg07
L_mid_hand01 Rope1_Seg09
L_mid_hand02 Rope1_Seg09
L_mid_hand03 Rope1_Seg09
null_rope02_connect R_mid_tent01
Rope2_Seg01 null_rope02_connect
Rope2_Seg02 Rope2_Seg01
Rope2_Seg03 Rope2_Seg02
Rope2_Seg04 Rope2_Seg03
Rope2_Seg05 Rope2_Seg04
Rope2_Seg06 Rope2_Seg05
Rope2_Seg07 Rope2_Seg06
Rope2_Seg09 Rope2_Seg07
R_mid_hand01 Rope2_Seg09
R_mid_hand02 Rope2_Seg09
R_mid_hand03 Rope2_Seg09
spine02 spine01
spine03 spine02
pelvis spine03
null_rope03_connect pelvis
null_rope04_connect pelvis
Rope3_Seg01 null_rope03_connect
Rope3_Seg02 Rope3_Seg01
Rope3_Seg03 Rope3_Seg02
Rope3_Seg04 Rope3_Seg03
Rope3_Seg05 Rope3_Seg04
Rope3_Seg06 Rope3_Seg05
Rope3_Seg07 Rope3_Seg06
Rope3_Seg08 Rope3_Seg07
Rope3_Seg09 Rope3_Seg08
R_rear_hand01 Rope3_Seg09
R_rear_hand02 Rope3_Seg09
R_rear_hand03 Rope3_Seg09
Rope4_Seg01 null_rope04_connect
Rope4_Seg02 Rope4_Seg01
Rope4_Seg03 Rope4_Seg02
Rope4_Seg04 Rope4_Seg03
Rope4_Seg05 Rope4_Seg04
Rope4_Seg06 Rope4_Seg05
Rope4_Seg07 Rope4_Seg06
Rope4_Seg08 Rope4_Seg07
Rope4_Seg09 Rope4_Seg08
L_rear_hand01 Rope4_Seg09
L_rear_hand02 Rope4_Seg09
L_rear_hand03 Rope4_Seg09
[BasePosition]
#SegmentName Tx, Ty, Tz, Rx, Ry, Rz, BoneLength
MASTER 0.000000 0.000000 0.000000 -90.000000 0.000000 0.000000 10.000000 
root 0.000000 0.000000 0.000000 0.000000 0.000000 0.000000 10.000000 
chest 0.000000 0.000000 0.000000 0.000000 0.000000 0.000000 10.000000 
L_mid_tent01 0.000000 0.000000 0.000000 0.000000 0.000000 0.000000 10.000000 
R_mid_tent01 0.000000 0.000000 0.000000 0.000000 0.000000 0.000000 10.000000 
spine01 0.000000 0.000000 0.000000 0.000000 0.000000 0.000000 10.000000 
Bip01_Neck 0.000000 0.000000 0.000000 0.000000 0.000000 0.000000 10.000000 
L_humerus 0.000000 0.000000 0.000000 0.000000 0.000000 0.000000 10.000000 
R_humerus 0.000000 0.000000 0.000000 0.000000 0.000000 0.000000 10.000000 
weapon_bone 0.000000 0.000000 0.000000 0.000000 0.000000 0.000000 10.000000 
Bip01_Head 0.000000 0.000000 0.000000 0.000000 0.000000 0.000000 10.000000 
eye_left_bone 0.000000 0.000000 0.000000 0.000000 0.000000 0.000000 10.000000 
eye_right_bone 0.000000 0.000000 0.000000 0.000000 0.000000 0.000000 10.000000 
L_forearm 0.000000 0.000000 0.000000 0.000000 0.000000 0.000000 10.000000 
L_front_hand 0.000000 0.000000 0.000000 0.000000 0.000000 0.000000 10.000000 
L_weapon_bone 0.000000 0.000000 0.000000 0.000000 0.000000 0.000000 10.000000 
L_front_hand01_01 0.000000 0.000000 0.000000 0.000000 0.000000 0.000000 10.000000 
L_front_hand02_01 0.000000 0.000000 0.000000 0.000000 0.000000 0.000000 10.000000 
L_front_hand03_01 0.000000 0.000000 0.000000 0.000000 0.000000 0.000000 10.000000 
L_front_hand01_02 0.000000 0.000000 0.000000 0.000000 0.000000 0.000000 10.000000 
L_front_hand02_02 0.000000 0.000000 0.000000 0.000000 0.000000 0.000000 10.000000 
L_front_hand03_02 0.000000 0.000000 0.000000 0.000000 0.000000 0.000000 10.000000 
R_forearm 0.000000 0.000000 0.000000 0.000000 0.000000 0.000000 10.000000 
R_front_hand 0.000000 0.000000 0.000000 0.000000 0.000000 0.000000 10.000000 
R_weapon_bone 0.000000 0.000000 0.000000 0.000000 0.000000 0.000000 10.000000 
R_front_hand01_01 0.000000 0.000000 0.000000 0.000000 0.000000 0.000000 10.000000 
R_front_hand02_01 0.000000 0.000000 0.000000 0.000000 0.000000 0.000000 10.000000 
R_front_hand03_01 0.000000 0.000000 0.000000 0.000000 0.000000 0.000000 10.000000 
R_front_hand01_02 0.000000 0.000000 0.000000 0.000000 0.000000 0.000000 10.000000 
R_front_hand02_02 0.000000 0.000000 0.000000 0.000000 0.000000 0.000000 10.000000 
R_front_hand03_02 0.000000 0.000000 0.000000 0.000000 0.000000 0.000000 10.000000 
null_rope01_connect 0.000000 0.000000 0.000000 0.000000 0.000000 0.000000 10.000000 
Rope1_Seg01 0.000000 0.000000 0.000000 0.000000 0.000000 0.000000 10.000000 
Rope1_Seg02 0.000000 0.000000 0.000000 0.000000 0.000000 0.000000 10.000000 
Rope1_Seg03 0.000000 0.000000 0.000000 0.000000 0.000000 0.000000 10.000000 
Rope1_Seg04 0.000000 0.000000 0.000000 0.000000 0.000000 0.000000 10.000000 
Rope1_Seg05 0.000000 0.000000 0.000000 0.000000 0.000000 0.000000 10.000000 
Rope1_Seg06 0.000000 0.000000 0.000000 0.000000 0.000000 0.000000 10.000000 
Rope1_Seg07 0.000000 0.000000 0.000000 0.000000 0.000000 0.000000 10.000000 
Rope1_Seg09 0.000000 0.000000 0.000000 0.000000 0.000000 0.000000 10.000000 
L_mid_hand01 0.000000 0.000000 0.000000 0.000000 0.000000 0.000000 10.000000 
L_mid_hand02 0.000000 0.000000 0.000000 0.000000 0.000000 0.000000 10.000000 
L_mid_hand03 0.000000 0.000000 0.000000 0.000000 0.000000 0.000000 10.000000 
null_rope02_connect 0.000000 0.000000 0.000000 0.000000 0.000000 0.000000 10.000000 
Rope2_Seg01 0.000000 0.000000 0.000000 0.000000 0.000000 0.000000 10.000000 
Rope2_Seg02 0.000000 0.000000 0.000000 0.000000 0.000000 0.000000 10.000000 
Rope2_Seg03 0.000000 0.000000 0.000000 0.000000 0.000000 0.000000 10.000000 
Rope2_Seg04 0.000000 0.000000 0.000000 0.000000 0.000000 0.000000 10.000000 
Rope2_Seg05 0.000000 0.000000 0.000000 0.000000 0.000000 0.000000 10.000000 
Rope2_Seg06 0.000000 0.000000 0.000000 0.000000 0.000000 0.000000 10.000000 
Rope2_Seg07 0.000000 0.000000 0.000000 0.000000 0.000000 0.000000 10.000000 
Rope2_Seg09 0.000000 0.000000 0.000000 0.000000 0.000000 0.000000 10.000000 
R_mid_hand01 0.000000 0.000000 0.000000 0.000000 0.000000 0.000000 10.000000 
R_mid_hand02 0.000000 0.000000 0.000000 0.000000 0.000000 0.000000 10.000000 
R_mid_hand03 0.000000 0.000000 0.000000 0.000000 0.000000 0.000000 10.000000 
spine02 0.000000 0.000000 0.000000 0.000000 0.000000 0.000000 10.000000 
spine03 0.000000 0.000000 0.000000 0.000000 0.000000 0.000000 10.000000 
pelvis 0.000000 0.000000 0.000000 0.000000 0.000000 0.000000 10.000000 
null_rope03_connect 0.000000 0.000000 0.000000 0.000000 0.000000 0.000000 10.000000 
null_rope04_connect 0.000000 0.000000 0.000000 0.000000 0.000000 0.000000 10.000000 
Rope3_Seg01 0.000000 0.000000 0.000000 0.000000 0.000000 0.000000 10.000000 
Rope3_Seg02 0.000000 0.000000 0.000000 0.000000 0.000000 0.000000 10.000000 
Rope3_Seg03 0.000000 0.000000 0.000000 0.000000 0.000000 0.000000 10.000000 
Rope3_Seg04 0.000000 0.000000 0.000000 0.000000 0.000000 0.000000 10.000000 
Rope3_Seg05 0.000000 0.000000 0.000000 0.000000 0.000000 0.000000 10.000000 
Rope3_Seg06 0.000000 0.000000 0.000000 0.000000 0.000000 0.000000 10.000000 
Rope3_Seg07 0.000000 0.000000 0.000000 0.000000 0.000000 0.000000 10.000000 
Rope3_Seg08 0.000000 0.000000 0.000000 0.000000 0.000000 0.000000 10.000000 
Rope3_Seg09 0.000000 0.000000 0.000000 0.000000 0.000000 0.000000 10.000000 
R_rear_hand01 0.000000 0.000000 0.000000 0.000000 0.000000 0.000000 10.000000 
R_rear_hand02 0.000000 0.000000 0.000000 0.000000 0.000000 0.000000 10.000000 
R_rear_hand03 0.000000 0.000000 0.000000 0.000000 0.000000 0.000000 10.000000 
Rope4_Seg01 0.000000 0.000000 0.000000 0.000000 0.000000 0.000000 10.000000 
Rope4_Seg02 0.000000 0.000000 0.000000 0.000000 0.000000 0.000000 10.000000 
Rope4_Seg03 0.000000 0.000000 0.000000 0.000000 0.000000 0.000000 10.000000 
Rope4_Seg04 0.000000 0.000000 0.000000 0.000000 0.000000 0.000000 10.000000 
Rope4_Seg05 0.000000 0.000000 0.000000 0.000000 0.000000 0.000000 10.000000 
Rope4_Seg06 0.000000 0.000000 0.000000 0.000000 0.000000 0.000000 10.000000 
Rope4_Seg07 0.000000 0.000000 0.000000 0.000000 0.000000 0.000000 10.000000 
Rope4_Seg08 0.000000 0.000000 0.000000 0.000000 0.000000 0.000000 10.000000 
Rope4_Seg09 0.000000 0.000000 0.000000 0.000000 0.000000 0.000000 10.000000 
L_rear_hand01 0.000000 0.000000 0.000000 0.000000 0.000000 0.000000 10.000000 
L_rear_hand02 0.000000 0.000000 0.000000 0.000000 0.000000 0.000000 10.000000 
L_rear_hand03 0.000000 0.000000 0.000000 0.000000 0.000000 0.000000 10.000000 
#Beginning of Data. Separated by tabs
#Fr	Tx	Ty	Tz	Rx	Ry	Rz	SF
[MASTER]
25 0.000000 0.000000 0.000000 0.001660 0.001660 0.001660 0.000000
26 0.000000 0.000000 0.000000 0.001660 0.001660 0.001660 0.000000
[root]
25 -29.575264 -43.678734 1504.227173 -90.297340 -27.772890 -89.236984 1505.151855
26 -22.958008 -53.368698 1562.410889 -90.972595 -27.710255 -89.693428 1563.490601
[chest]
25 -84.512650 -34.090519 0.000000 -0.781753 0.035351 -165.152664 91.129311
26 -84.512650 -34.090519 0.000000 -1.033647 0.132866 -167.887650 91.129311
[L_mid_tent01]
25 27.299576 22.177427 -249.917984 1.232792 37.994030 76.890320 252.380859
26 27.299597 22.177401 -249.917953 -1.252514 38.057407 73.037857 252.380829
[R_mid_tent01]
25 23.228794 24.509907 226.238495 161.592590 -47.094154 84.358353 228.744751
26 23.228794 24.509907 226.238495 163.529526 -46.152435 80.807243 228.744751
[spine01]
25 -0.361383 -0.195265 0.000000 0.001901 0.001377 18.137672 0.410763
26 -0.361383 -0.195265 0.000000 0.001898 0.001382 17.877735 0.410763
[Bip01_Neck]
25 165.484543 71.581718 0.000119 175.896118 1.177290 24.871183 180.302734
26 165.484543 71.581718 0.000119 175.896118 1.177290 24.871183 180.302734
[L_humerus]
25 -13.983130 -135.272980 -120.471481 -179.297256 4.850812 -122.970184 181.680161
26 -13.983130 -135.272980 -120.471481 -177.609955 3.243417 -123.282692 181.680161
[R_humerus]
25 -13.983309 -135.273102 125.287651 -179.639572 -1.607667 -121.842201 184.909012
26 -13.983309 -135.273102 125.287651 -179.639572 -1.607667 -121.842201 184.909012
[weapon_bone]
25 235.964890 -300.705902 0.000000 0.000000 -89.951546 -128.212341 382.234833
26 235.964890 -300.705902 0.000000 0.000000 -89.951546 -128.212341 382.234833
[Bip01_Head]
25 102.819824 23.735645 5.410239 3.150732 3.423701 -20.839092 105.662514
26 102.819870 23.735901 5.410250 3.150729 3.423702 -20.839096 105.662621
[eye_left_bone]
25 -24.626970 125.451866 -64.772606 0.000000 -90.000000 -99.840431 143.318359
26 -24.626970 125.451866 -64.772606 0.000000 -90.000000 -99.840431 143.318359
[eye_right_bone]
25 -24.626970 125.451866 64.327362 0.000000 -89.960434 80.159386 143.117676
26 -24.626970 125.451866 64.327362 0.000000 -89.960434 80.159386 143.117676
[L_forearm]
25 322.776093 0.000000 -0.000119 0.000017 0.002347 -89.149834 322.776093
26 322.776093 0.000000 -0.000119 0.000017 0.002347 -89.149834 322.776093
[L_front_hand]
25 241.149185 -0.042021 -3.300071 -177.765518 0.382312 -91.188133 241.171753
26 241.149185 -0.042021 -3.300071 -179.549637 -2.221654 -2.896161 241.171753
[L_weapon_bone]
25 152.813324 24.280508 0.000763 0.001959 0.001293 23.126087 154.730270
26 152.587448 25.907488 0.000865 0.001946 0.001312 22.031681 154.771210
[L_front_hand01_01]
25 86.095154 20.947098 -0.655860 0.405585 -0.442306 -4.620490 88.609184
26 86.095154 20.947098 -0.655860 0.405585 -0.442306 -4.620490 88.609184
[L_front_hand02_01]
25 86.935165 -11.437475 24.513514 116.959450 3.630817 1.495453 91.046425
26 86.935165 -11.437475 24.513514 116.959450 3.630817 1.495453 91.046425
[L_front_hand03_01]
25 86.637497 -14.123976 -20.424902 -118.420097 -4.656303 -0.152527 90.126129
26 86.637497 -14.123976 -20.424902 -118.420097 -4.656303 -0.152527 90.126129
[L_front_hand01_02]
25 71.020905 -0.000179 0.000030 0.000004 -0.000005 -8.379269 71.020905
26 71.020905 -0.000179 0.000030 0.000004 -0.000005 -8.379269 71.020905
[L_front_hand02_02]
25 71.020927 -0.000119 0.000060 -0.000005 -0.000004 -8.379259 71.020927
26 71.020927 -0.000119 0.000060 -0.000005 -0.000004 -8.379259 71.020927
[L_front_hand03_02]
25 71.020905 -0.000060 0.000060 0.000015 -0.000040 -8.379267 71.020905
26 71.020905 -0.000060 0.000060 0.000015 -0.000040 -8.379267 71.020905
[R_forearm]
25 322.776428 -0.000060 0.000030 0.209843 -0.000549 -90.981812 322.776428
26 322.776428 -0.000060 0.000030 0.209840 -0.001147 -90.655396 322.776428
[R_front_hand]
25 238.847015 -0.006795 2.210259 -1.660002 -0.478459 -94.831825 238.857239
26 238.847015 -0.006795 2.210259 -0.301544 1.701446 1.233746 238.857239
[R_weapon_bone]
25 155.664093 0.002503 -0.000030 0.003345 0.001537 -102.968391 155.664078
26 155.664093 0.002503 -0.000030 0.003365 0.001493 -101.450218 155.664078
[R_front_hand01_01]
25 87.624611 14.231146 22.918642 -116.960213 3.496675 -1.324139 91.683487
26 87.624611 14.231146 22.918642 -116.960213 3.496675 -1.324139 91.683487
[R_front_hand02_01]
25 89.356956 14.367283 -19.491137 118.419647 -4.257089 0.609827 92.579636
26 89.356956 14.367283 -19.491137 118.419647 -4.257089 0.609827 92.579636
[R_front_hand03_01]
25 87.286232 -22.307278 -0.143439 -0.387970 -0.231462 4.232001 90.091743
26 87.286232 -22.307278 -0.143439 -0.387970 -0.231462 4.232001 90.091743
[R_front_hand01_02]
25 71.020905 0.000060 0.000119 -0.000005 -0.000020 8.379271 71.020905
26 71.020905 0.000060 0.000119 -0.000005 -0.000020 8.379271 71.020905
[R_front_hand02_02]
25 71.020844 -0.000030 -0.000119 0.000000 -0.000021 8.379271 71.020836
26 71.020844 -0.000030 -0.000119 0.000000 -0.000021 8.379271 71.020836
[R_front_hand03_02]
25 71.020905 0.000000 0.000030 -0.000001 -0.000020 8.379275 71.020905
26 71.020905 0.000000 0.000030 -0.000001 -0.000020 8.379275 71.020905
[null_rope01_connect]
25 328.732483 0.000000 -0.000238 -137.935257 -52.222572 179.468170 328.732483
26 328.732483 0.000000 -0.000238 -137.946030 -51.191368 -177.650894 328.732483
[Rope1_Seg01]
25 0.000024 -0.000050 0.000105 123.749397 50.724648 152.108994 0.000118
26 0.000022 -0.000049 0.000109 153.616165 58.961170 -177.185699 0.000121
[Rope1_Seg02]
25 139.999863 -0.000179 0.000000 2.586127 -15.881467 1.164350 139.999863
26 139.999863 -0.000179 0.000000 5.615999 -10.583359 -0.852093 139.999863
[Rope1_Seg03]
25 139.999924 0.000060 -0.000060 -1.371965 -24.703144 4.373829 139.999924
26 139.999924 0.000060 -0.000060 6.352577 -17.428125 -1.163402 139.999924
[Rope1_Seg04]
25 139.999924 -0.000060 -0.000119 -2.894053 -13.555346 -1.328336 139.999924
26 139.999924 -0.000060 -0.000119 1.165951 -23.118446 5.374039 139.999924
[Rope1_Seg05]
25 139.999832 0.000119 -0.000060 -0.627477 -1.532372 -1.038561 139.999832
26 139.999832 0.000119 -0.000060 -0.120063 -3.518343 4.444936 139.999832
[Rope1_Seg06]
25 139.999954 0.000119 -0.000060 -0.424861 -1.315162 -0.329794 139.999954
26 139.999954 0.000119 -0.000060 -0.117270 -2.148635 1.329633 139.999954
[Rope1_Seg07]
25 139.999985 0.000060 0.000000 -0.259052 -0.795068 -0.204268 139.999985
26 139.999985 0.000060 0.000000 -0.075925 -1.259058 0.759258 139.999985
[Rope1_Seg09]
25 121.602913 0.000119 -0.000089 -89.793175 -1.359789 0.847147 121.602913
26 121.602913 0.000119 -0.000089 -89.793175 -1.359789 0.847147 121.602913
[L_mid_hand01]
25 103.859421 1.038730 8.195221 104.352036 0.341479 -0.444583 104.187431
26 103.859421 1.038730 8.195221 104.352043 0.341479 -0.444583 104.187431
[L_mid_hand02]
25 105.572853 -4.139662 -10.864139 -135.608444 3.905687 -3.381056 106.211075
26 105.572853 -4.139662 -10.864139 -135.608444 3.905687 -3.381056 106.211075
[L_mid_hand03]
25 104.641464 17.579376 -3.913581 -18.761518 -0.324361 2.942912 106.179977
26 104.641464 17.579376 -3.913581 -18.761520 -0.324361 2.942913 106.179977
[null_rope02_connect]
25 328.732849 0.000179 -0.000119 -121.682838 39.845547 17.083477 328.732849
26 328.732849 0.000179 -0.000119 -120.209595 42.191372 16.126936 328.732849
[Rope2_Seg01]
25 0.000126 0.000114 -0.000105 -80.133362 54.162041 16.308805 0.000200
26 0.000125 0.000114 -0.000109 -112.533905 60.029617 -10.540573 0.000202
[Rope2_Seg02]
25 139.999741 -0.000060 -0.000119 -1.938939 -10.175476 7.533945 139.999756
26 139.999741 -0.000060 -0.000119 -0.948924 -8.451290 4.734818 139.999756
[Rope2_Seg03]
25 140.000107 0.000030 0.000000 -0.632652 -8.171117 4.847951 140.000107
26 140.000107 0.000030 0.000000 -0.603286 -8.525629 4.451717 140.000107
[Rope2_Seg04]
25 139.999802 0.000000 -0.000060 -2.238210 -17.643217 14.103058 139.999802
26 139.999802 0.000000 -0.000060 -0.473410 -8.763901 4.448637 139.999802
[Rope2_Seg05]
25 139.999985 -0.000060 0.000119 0.361572 -12.972212 11.228024 139.999985
26 139.999985 -0.000060 0.000119 -2.214213 -19.085487 12.147044 139.999985
[Rope2_Seg06]
25 139.999893 -0.000030 -0.000119 0.791770 -4.460183 3.871832 139.999893
26 139.999893 -0.000030 -0.000119 -0.379757 -12.889839 8.089340 139.999893
[Rope2_Seg07]
25 139.999893 0.000060 -0.000060 0.596644 -2.483459 2.224877 139.999893
26 139.999893 0.000060 -0.000060 0.240679 -6.110638 3.783365 139.999893
[Rope2_Seg09]
25 121.338966 0.000089 -0.000060 33.793236 -1.359788 -0.847141 121.338966
26 121.338966 0.000089 -0.000060 33.793236 -1.359788 -0.847141 121.338966
[R_mid_hand01]
25 104.680779 11.144459 -10.335981 -47.384266 2.963523 5.452605 105.778534
26 104.680779 11.144459 -10.335981 -47.384258 2.963522 5.452604 105.778534
[R_mid_hand02]
25 104.070427 2.443552 8.231699 75.626297 -2.250001 1.111093 104.424065
26 104.070427 2.443552 8.231699 75.626297 -2.250001 1.111093 104.424065
[R_mid_hand03]
25 106.028137 -11.221827 -5.996406 -164.381927 2.495984 -6.140522 106.788818
26 106.028137 -11.221827 -5.996406 -164.381912 2.495983 -6.140520 106.788818
[spine02]
25 129.756927 0.001550 0.000119 -0.804937 -3.986414 3.506919 129.756927
26 129.756927 0.001550 0.000119 -0.758301 -3.995383 2.839494 129.756927
[spine03]
25 78.823990 0.051061 -2.849686 -0.343666 4.409766 -13.694419 78.875504
26 78.804916 0.054423 -3.035974 -0.273696 4.401380 -12.814694 78.863396
[pelvis]
25 169.435242 0.051022 0.000000 -2.701868 -1.485364 4.233746 169.435257
26 169.435242 0.051022 0.000000 -2.428925 -1.368642 3.620085 169.435257
[null_rope03_connect]
25 -1.257226 -2.466202 137.391083 164.104935 -86.554291 -58.433846 137.418976
26 -1.257226 -2.466202 137.391083 177.961868 -86.428177 -71.715256 137.418976
[null_rope04_connect]
25 -1.259640 -2.480268 -137.844437 164.104935 -86.554291 -58.433846 137.872513
26 -1.259640 -2.480268 -137.844437 177.961868 -86.428177 -71.715256 137.872513
[Rope3_Seg01]
25 -0.000041 0.000010 -0.000003 -130.284698 -20.644775 -81.681976 0.000042
26 -0.000041 0.000005 -0.000003 -130.383881 -7.446893 -80.688736 0.000041
[Rope3_Seg02]
25 139.999924 -0.000119 0.000060 -3.167686 6.576359 -18.324663 139.999924
26 139.999924 -0.000119 0.000060 -3.701862 8.987427 -21.969999 139.999924
[Rope3_Seg03]
25 139.999924 -0.000119 0.000119 -7.874010 7.128880 -20.907278 139.999924
26 139.999924 -0.000119 0.000119 -10.997262 10.164950 -26.207409 139.999924
[Rope3_Seg04]
25 139.999924 0.000119 0.000000 -9.743799 6.814034 -15.759977 139.999924
26 139.999924 0.000119 0.000000 -11.014618 9.570677 -15.270066 139.999924
[Rope3_Seg05]
25 139.999924 -0.000238 0.000060 -7.725870 9.772114 -5.576523 139.999924
26 139.999924 -0.000238 0.000060 -5.619459 8.888680 -3.211997 139.999924
[Rope3_Seg06]
25 139.999893 -0.000119 -0.000060 -4.202101 9.082212 -0.694645 139.999893
26 139.999893 -0.000119 -0.000060 -2.914216 7.130375 -0.586409 139.999893
[Rope3_Seg07]
25 139.999771 0.000060 -0.000119 -2.267800 5.713484 -1.216014 139.999771
26 139.999771 0.000060 -0.000119 -1.829403 5.029297 -1.222403 139.999771
[Rope3_Seg08]
25 139.999985 -0.000060 0.000000 -1.014080 3.547389 -0.682914 139.999985
26 139.999985 -0.000060 0.000000 -0.819047 3.231845 -0.679502 139.999985
[Rope3_Seg09]
25 90.185997 -0.000179 -0.000060 89.793228 -1.359877 -0.847183 90.185997
26 90.185997 -0.000179 -0.000060 89.793228 -1.359877 -0.847183 90.185997
[R_rear_hand01]
25 103.366196 -6.073594 -10.757982 -156.049316 6.070419 -2.795869 104.101845
26 103.366196 -6.073594 -10.757982 -156.049316 6.070419 -2.795869 104.101845
[R_rear_hand02]
25 100.509819 12.039542 -7.992327 -38.708439 1.958052 5.461187 101.543350
26 100.509819 12.039542 -7.992327 -38.708435 1.958051 5.461186 101.543350
[R_rear_hand03]
25 101.539970 5.215704 5.435467 84.307625 -2.361032 4.099037 101.819031
26 101.539970 5.215704 5.435467 84.307625 -2.361032 4.099037 101.819031
[Rope4_Seg01]
25 -0.000020 -0.000054 -0.000129 43.527760 -26.882896 -91.454735 0.000141
26 -0.000020 -0.000060 -0.000131 45.379871 -12.660698 -94.862869 0.000145
[Rope4_Seg02]
25 139.999985 0.000060 0.000119 0.376848 -20.499109 6.576503 139.999985
26 139.999985 0.000060 0.000119 -0.594612 -23.777079 11.263587 139.999985
[Rope4_Seg03]
25 139.999924 0.000000 -0.000238 3.722090 -18.242870 1.418635 139.999924
26 139.999924 0.000000 -0.000238 4.395818 -19.697531 4.851453 139.999924
[Rope4_Seg04]
25 139.999985 0.000000 0.000119 6.372731 -11.501828 6.018978 139.999985
26 139.999985 0.000000 0.000119 6.944985 -10.148691 9.729722 139.999985
[Rope4_Seg05]
25 139.999802 -0.000060 -0.000119 9.469686 -2.795061 16.227999 139.999802
26 139.999802 -0.000060 -0.000119 7.791285 -2.333718 15.679885 139.999802
[Rope4_Seg06]
25 139.999924 0.000000 0.000060 4.707264 0.631620 10.769871 139.999924
26 139.999924 0.000000 0.000060 3.721524 -0.333503 9.378388 139.999924
[Rope4_Seg07]
25 139.999802 0.000000 0.000000 2.096215 0.001922 5.395386 139.999802
26 139.999802 0.000000 0.000000 1.923522 -0.301410 5.365415 139.999802
[Rope4_Seg08]
25 139.999924 0.000000 0.000119 -0.420563 0.117296 3.196583 139.999924
26 139.999924 0.000000 0.000119 -0.490231 -0.073595 3.227021 139.999924
[Rope4_Seg09]
25 90.185791 0.000060 0.000060 -135.617828 2.228885 0.850567 90.185791
26 90.185791 0.000060 0.000060 -135.617828 2.228885 0.850567 90.185791
[L_rear_hand01]
25 101.696655 -8.392275 -7.654577 -38.746338 0.246096 177.290207 102.329041
26 101.696655 -8.392275 -7.654577 -38.746338 0.246096 177.290207 102.329041
[L_rear_hand02]
25 102.726799 -1.568258 5.773216 84.315163 -1.142796 176.247437 102.900848
26 102.726799 -1.568258 5.773216 84.315163 -1.142796 176.247437 102.900848
[L_rear_hand03]
25 104.552910 9.721220 -10.420293 -155.747955 -4.630845 179.564758 105.519653
26 104.552910 9.721220 -10.420293 -155.747955 -4.630845 179.564758 105.519653
